<svg xmlns="http://www.w3.org/2000/svg" viewBox="0 0 120 120" width="120" height="120">
  <defs>
    <radialGradient id="bg-bella" cx="50%" cy="40%" r="70%">
      <stop offset="0%" stop-color="#fce7f3"/>
      <stop offset="100%" stop-color="#a855f7"/>
    </radialGradient>
  </defs>
  <rect width="120" height="120" fill="url(#bg-bella)"/>
  <!-- Кучеряве волосся пуделя (хмаринки) -->
  <circle cx="40" cy="42" r="14" fill="#f3f4f6"/>
  <circle cx="60" cy="35" r="16" fill="#f3f4f6"/>
  <circle cx="80" cy="42" r="14" fill="#f3f4f6"/>
  <circle cx="32" cy="55" r="12" fill="#f3f4f6"/>
  <circle cx="88" cy="55" r="12" fill="#f3f4f6"/>
  <!-- Морда -->
  <ellipse cx="60" cy="72" rx="26" ry="22" fill="#f9fafb"/>
  <!-- Кучеряве підборіддя -->
  <circle cx="48" cy="90" r="8" fill="#f3f4f6"/>
  <circle cx="60" cy="94" r="9" fill="#f3f4f6"/>
  <circle cx="72" cy="90" r="8" fill="#f3f4f6"/>
  <!-- Бант -->
  <path d="M55 22 L60 28 L65 22 L62 30 L58 30 Z" fill="#ec4899"/>
  <circle cx="60" cy="28" r="2" fill="#be185d"/>
  <!-- Очі -->
  <circle cx="50" cy="68" r="3" fill="#1f2937"/>
  <circle cx="70" cy="68" r="3" fill="#1f2937"/>
  <circle cx="51" cy="67" r="1" fill="white"/>
  <circle cx="71" cy="67" r="1" fill="white"/>
  <!-- Ніс -->
  <ellipse cx="60" cy="76" rx="3.5" ry="2.5" fill="#1f2937"/>
  <!-- Усмішка -->
  <path d="M55 82 Q60 86 65 82" stroke="#1f2937" stroke-width="1.5" fill="none" stroke-linecap="round"/>
</svg>
