<svg xmlns="http://www.w3.org/2000/svg" viewBox="0 0 120 120" width="120" height="120">
  <defs>
    <radialGradient id="bg-chinnu" cx="50%" cy="40%" r="70%">
      <stop offset="0%" stop-color="#fed7aa"/>
      <stop offset="100%" stop-color="#c2410c"/>
    </radialGradient>
  </defs>
  <rect width="120" height="120" fill="url(#bg-chinnu)"/>
  <!-- Голова шиба -->
  <path d="M30 70 Q30 40 60 35 Q90 40 90 70 Q90 95 60 95 Q30 95 30 70 Z" fill="#e76f51"/>
  <!-- Білі щічки/морда -->
  <ellipse cx="60" cy="78" rx="22" ry="14" fill="#fef3c7"/>
  <!-- Гострі вуха -->
  <path d="M38 38 L32 22 L48 32 Z" fill="#c2410c"/>
  <path d="M82 38 L88 22 L72 32 Z" fill="#c2410c"/>
  <path d="M40 36 L36 26 L44 32 Z" fill="#fbbf78"/>
  <path d="M80 36 L84 26 L76 32 Z" fill="#fbbf78"/>
  <!-- Очі -->
  <ellipse cx="48" cy="60" rx="3" ry="4" fill="#1f2937"/>
  <ellipse cx="72" cy="60" rx="3" ry="4" fill="#1f2937"/>
  <!-- Брівки -->
  <ellipse cx="46" cy="54" rx="3" ry="1.5" fill="#fef3c7"/>
  <ellipse cx="74" cy="54" rx="3" ry="1.5" fill="#fef3c7"/>
  <!-- Ніс -->
  <ellipse cx="60" cy="72" rx="3.5" ry="2.5" fill="#1f2937"/>
  <!-- Усмішка -->
  <path d="M52 82 Q60 88 68 82" stroke="#1f2937" stroke-width="2" fill="none" stroke-linecap="round"/>
</svg>
