<svg xmlns="http://www.w3.org/2000/svg" viewBox="0 0 120 120" width="120" height="120">
  <defs>
    <radialGradient id="bg-coco" cx="50%" cy="40%" r="70%">
      <stop offset="0%" stop-color="#cbd5e1"/>
      <stop offset="100%" stop-color="#475569"/>
    </radialGradient>
  </defs>
  <rect width="120" height="120" fill="url(#bg-coco)"/>
  <!-- Голова німецької вівчарки -->
  <path d="M30 75 Q30 45 60 40 Q90 45 90 75 Q90 95 60 95 Q30 95 30 75 Z" fill="#92400e"/>
  <!-- Гострі вуха стійки -->
  <path d="M34 35 L28 12 L48 30 Z" fill="#7c2d12"/>
  <path d="M86 35 L92 12 L72 30 Z" fill="#7c2d12"/>
  <!-- Морда чорна -->
  <ellipse cx="60" cy="78" rx="18" ry="12" fill="#1f2937"/>
  <!-- Очі -->
  <ellipse cx="48" cy="62" rx="3" ry="4" fill="#1f2937"/>
  <ellipse cx="72" cy="62" rx="3" ry="4" fill="#1f2937"/>
  <circle cx="49" cy="61" r="1" fill="#fde68a"/>
  <circle cx="73" cy="61" r="1" fill="#fde68a"/>
  <!-- Ніс -->
  <ellipse cx="60" cy="74" rx="5" ry="3.5" fill="#000"/>
  <!-- Усмішка з язичком -->
  <path d="M54 84 Q60 90 66 84" stroke="#fde68a" stroke-width="2" fill="none" stroke-linecap="round"/>
  <ellipse cx="60" cy="88" rx="3" ry="2.5" fill="#f87171"/>
</svg>
